<svg width="42" height="63" viewBox="0 0 42 63" fill="none" xmlns="http://www.w3.org/2000/svg">
<path d="M1.08049 14V6.72727H3.6231C4.12973 6.72727 4.54758 6.81487 4.87665 6.99006C5.20572 7.16288 5.45075 7.39607 5.61174 7.68963C5.77272 7.98082 5.85321 8.30398 5.85321 8.65909C5.85321 8.97159 5.79758 9.22964 5.68631 9.43324C5.57741 9.63684 5.433 9.79782 5.25307 9.91619C5.07551 10.0346 4.88257 10.1222 4.67424 10.179V10.25C4.89677 10.2642 5.1205 10.3423 5.3454 10.4844C5.57031 10.6264 5.75852 10.83 5.91003 11.0952C6.06155 11.3603 6.1373 11.6847 6.1373 12.0682C6.1373 12.4328 6.05444 12.7607 5.88872 13.0518C5.72301 13.343 5.4614 13.5739 5.10392 13.7443C4.74644 13.9148 4.28124 14 3.70833 14H1.08049ZM1.96117 13.2188H3.70833C4.28361 13.2188 4.69199 13.1075 4.93347 12.8849C5.17731 12.66 5.29924 12.3878 5.29924 12.0682C5.29924 11.822 5.2365 11.5947 5.11103 11.3864C4.98555 11.1757 4.80681 11.0076 4.5748 10.8821C4.3428 10.7543 4.06818 10.6903 3.75094 10.6903H1.96117V13.2188ZM1.96117 9.9233H3.59469C3.85984 9.9233 4.09895 9.87121 4.31202 9.76705C4.52746 9.66288 4.69791 9.5161 4.82338 9.3267C4.95122 9.13731 5.01515 8.91477 5.01515 8.65909C5.01515 8.33949 4.90388 8.06842 4.68134 7.84588C4.4588 7.62098 4.10605 7.50852 3.6231 7.50852H1.96117V9.9233ZM9.88667 14.1136C9.39424 14.1136 8.96219 13.9964 8.5905 13.7621C8.22118 13.5277 7.93236 13.1998 7.72402 12.7784C7.51806 12.357 7.41507 11.8646 7.41507 11.3011C7.41507 10.733 7.51806 10.237 7.72402 9.81321C7.93236 9.38944 8.22118 9.06037 8.5905 8.82599C8.96219 8.59162 9.39424 8.47443 9.88667 8.47443C10.3791 8.47443 10.81 8.59162 11.1793 8.82599C11.551 9.06037 11.8398 9.38944 12.0458 9.81321C12.2541 10.237 12.3583 10.733 12.3583 11.3011C12.3583 11.8646 12.2541 12.357 12.0458 12.7784C11.8398 13.1998 11.551 13.5277 11.1793 13.7621C10.81 13.9964 10.3791 14.1136 9.88667 14.1136ZM9.88667 13.3608C10.2607 13.3608 10.5685 13.2649 10.81 13.0732C11.0514 12.8814 11.2302 12.6293 11.3462 12.3168C11.4622 12.0043 11.5202 11.6657 11.5202 11.3011C11.5202 10.9366 11.4622 10.5968 11.3462 10.282C11.2302 9.96709 11.0514 9.71259 10.81 9.51847C10.5685 9.32434 10.2607 9.22727 9.88667 9.22727C9.51261 9.22727 9.20485 9.32434 8.96337 9.51847C8.72189 9.71259 8.54315 9.96709 8.42715 10.282C8.31114 10.5968 8.25314 10.9366 8.25314 11.3011C8.25314 11.6657 8.31114 12.0043 8.42715 12.3168C8.54315 12.6293 8.72189 12.8814 8.96337 13.0732C9.20485 13.2649 9.51261 13.3608 9.88667 13.3608ZM14.6756 10.7188V14H13.8376V8.54545H14.6472V9.39773H14.7182C14.8461 9.12074 15.0402 8.8982 15.3006 8.73011C15.561 8.55966 15.8972 8.47443 16.3091 8.47443C16.6785 8.47443 17.0016 8.55019 17.2786 8.7017C17.5556 8.85085 17.771 9.07812 17.9249 9.38352C18.0788 9.68655 18.1557 10.0701 18.1557 10.5341V14H17.3177V10.5909C17.3177 10.1624 17.2064 9.8286 16.9839 9.58949C16.7613 9.34801 16.4559 9.22727 16.0677 9.22727C15.8001 9.22727 15.561 9.28527 15.3503 9.40128C15.142 9.51728 14.9775 9.68655 14.8567 9.90909C14.736 10.1316 14.6756 10.4015 14.6756 10.7188ZM23.3247 11.7699V8.54545H24.1627V14H23.3247V13.0767H23.2678C23.14 13.3537 22.9411 13.5893 22.6713 13.7834C22.4014 13.9751 22.0605 14.071 21.6485 14.071C21.3076 14.071 21.0046 13.9964 20.7394 13.8473C20.4743 13.6958 20.266 13.4685 20.1144 13.1655C19.9629 12.8601 19.8872 12.4754 19.8872 12.0114V8.54545H20.7252V11.9545C20.7252 12.3523 20.8365 12.6695 21.059 12.9062C21.2839 13.143 21.5704 13.2614 21.9184 13.2614C22.1267 13.2614 22.3386 13.2081 22.5541 13.1016C22.7719 12.995 22.9542 12.8317 23.1009 12.6115C23.2501 12.3913 23.3247 12.1108 23.3247 11.7699ZM29.7613 9.76705L29.0085 9.98011C28.9612 9.85464 28.8913 9.73272 28.799 9.61435C28.709 9.49361 28.5859 9.39418 28.4297 9.31605C28.2734 9.23793 28.0734 9.19886 27.8295 9.19886C27.4957 9.19886 27.2175 9.2758 26.995 9.42969C26.7748 9.5812 26.6648 9.77415 26.6648 10.0085C26.6648 10.2169 26.7405 10.3814 26.892 10.5021C27.0435 10.6229 27.2803 10.7235 27.6023 10.804L28.4119 11.0028C28.8996 11.1212 29.263 11.3023 29.5021 11.5462C29.7412 11.7876 29.8608 12.099 29.8608 12.4801C29.8608 12.7926 29.7708 13.072 29.5909 13.3182C29.4133 13.5644 29.1648 13.7585 28.8452 13.9006C28.5255 14.0426 28.1539 14.1136 27.7301 14.1136C27.1738 14.1136 26.7133 13.9929 26.3487 13.7514C25.9841 13.5099 25.7533 13.1572 25.6562 12.6932L26.4517 12.4943C26.5274 12.7879 26.6707 13.008 26.8814 13.1548C27.0944 13.3016 27.3726 13.375 27.7159 13.375C28.1065 13.375 28.4166 13.2921 28.6463 13.1264C28.8783 12.9583 28.9943 12.7571 28.9943 12.5227C28.9943 12.3333 28.928 12.1747 28.7954 12.0469C28.6629 11.9167 28.4593 11.8196 28.1846 11.7557L27.2755 11.5426C26.776 11.4242 26.4091 11.2408 26.1747 10.9922C25.9427 10.7412 25.8267 10.4276 25.8267 10.0511C25.8267 9.74337 25.9131 9.47112 26.0859 9.23438C26.2611 8.99763 26.499 8.81179 26.7997 8.67685C27.1027 8.5419 27.446 8.47443 27.8295 8.47443C28.3693 8.47443 28.7931 8.5928 29.1008 8.82955C29.411 9.06629 29.6311 9.37879 29.7613 9.76705ZM33.6093 14.1136C33.0837 14.1136 32.6303 13.9976 32.2492 13.7656C31.8704 13.5312 31.578 13.2045 31.372 12.7855C31.1684 12.3641 31.0666 11.8741 31.0666 11.3153C31.0666 10.7566 31.1684 10.2642 31.372 9.83807C31.578 9.40956 31.8645 9.07576 32.2314 8.83665C32.6007 8.59517 33.0316 8.47443 33.524 8.47443C33.8081 8.47443 34.0887 8.52178 34.3656 8.61648C34.6426 8.71117 34.8948 8.86506 35.122 9.07812C35.3493 9.28883 35.5304 9.56818 35.6654 9.91619C35.8003 10.2642 35.8678 10.6927 35.8678 11.2017V11.5568H31.6632V10.8324H35.0155C35.0155 10.5246 34.9539 10.25 34.8308 10.0085C34.7101 9.76705 34.5373 9.57647 34.3124 9.43679C34.0898 9.29711 33.8271 9.22727 33.524 9.22727C33.1902 9.22727 32.9014 9.31013 32.6575 9.47585C32.4161 9.6392 32.2302 9.85227 32.1 10.1151C31.9698 10.3778 31.9047 10.6596 31.9047 10.9602V11.4432C31.9047 11.8551 31.9757 12.2043 32.1178 12.4908C32.2622 12.7749 32.4622 12.9915 32.7179 13.1406C32.9736 13.2874 33.2707 13.3608 33.6093 13.3608C33.8294 13.3608 34.0283 13.33 34.2058 13.2685C34.3858 13.2045 34.5408 13.1098 34.671 12.9844C34.8012 12.8565 34.9019 12.6979 34.9729 12.5085L35.7825 12.7358C35.6973 13.0104 35.5541 13.2519 35.3529 13.4602C35.1516 13.6662 34.903 13.8272 34.6071 13.9432C34.3112 14.0568 33.9786 14.1136 33.6093 14.1136ZM41.2063 9.76705L40.4534 9.98011C40.4061 9.85464 40.3362 9.73272 40.2439 9.61435C40.1539 9.49361 40.0308 9.39418 39.8746 9.31605C39.7183 9.23793 39.5183 9.19886 39.2744 9.19886C38.9406 9.19886 38.6625 9.2758 38.4399 9.42969C38.2198 9.5812 38.1097 9.77415 38.1097 10.0085C38.1097 10.2169 38.1854 10.3814 38.3369 10.5021C38.4885 10.6229 38.7252 10.7235 39.0472 10.804L39.8568 11.0028C40.3445 11.1212 40.7079 11.3023 40.947 11.5462C41.1861 11.7876 41.3057 12.099 41.3057 12.4801C41.3057 12.7926 41.2157 13.072 41.0358 13.3182C40.8583 13.5644 40.6097 13.7585 40.2901 13.9006C39.9705 14.0426 39.5988 14.1136 39.175 14.1136C38.6187 14.1136 38.1582 13.9929 37.7936 13.7514C37.429 13.5099 37.1982 13.1572 37.1012 12.6932L37.8966 12.4943C37.9724 12.7879 38.1156 13.008 38.3263 13.1548C38.5394 13.3016 38.8175 13.375 39.1608 13.375C39.5514 13.375 39.8616 13.2921 40.0912 13.1264C40.3232 12.9583 40.4392 12.7571 40.4392 12.5227C40.4392 12.3333 40.3729 12.1747 40.2404 12.0469C40.1078 11.9167 39.9042 11.8196 39.6296 11.7557L38.7205 11.5426C38.2209 11.4242 37.854 11.2408 37.6196 10.9922C37.3876 10.7412 37.2716 10.4276 37.2716 10.0511C37.2716 9.74337 37.358 9.47112 37.5308 9.23438C37.706 8.99763 37.944 8.81179 38.2446 8.67685C38.5476 8.5419 38.8909 8.47443 39.2744 8.47443C39.8142 8.47443 40.238 8.5928 40.5458 8.82955C40.8559 9.06629 41.0761 9.37879 41.2063 9.76705Z" fill="black"/>
<path d="M21 21L23.2249 24.31L26.8779 23.0053L26.8249 27.0563L30.5106 28.2553L28.2 31.5L30.5106 34.7447L26.8249 35.9437L26.8779 39.9947L23.2249 38.69L21 42L18.7751 38.69L15.1221 39.9947L15.1751 35.9437L11.4894 34.7447L13.8 31.5L11.4894 28.2553L15.1751 27.0563L15.1221 23.0053L18.7751 24.31L21 21Z" fill="#BB945F"/>
<path d="M12.4032 49.7273V57H11.5225V50.6506H11.4799L9.70435 51.8295V50.9347L11.5225 49.7273H12.4032ZM14.6948 57V56.3608L17.0954 53.733C17.3771 53.4252 17.6091 53.1577 17.7914 52.9304C17.9737 52.7008 18.1087 52.4853 18.1963 52.2841C18.2862 52.0805 18.3312 51.8674 18.3312 51.6449C18.3312 51.3892 18.2696 51.1679 18.1465 50.9808C18.0258 50.7938 17.8601 50.6494 17.6494 50.5476C17.4387 50.4458 17.2019 50.3949 16.9392 50.3949C16.6598 50.3949 16.416 50.4529 16.2076 50.5689C16.0017 50.6825 15.8418 50.8423 15.7282 51.0483C15.6169 51.2543 15.5613 51.4957 15.5613 51.7727H14.7232C14.7232 51.3466 14.8215 50.9725 15.018 50.6506C15.2145 50.3286 15.482 50.0777 15.8205 49.8977C16.1615 49.7178 16.5438 49.6278 16.9676 49.6278C17.3937 49.6278 17.7713 49.7178 18.1004 49.8977C18.4294 50.0777 18.6875 50.3203 18.8745 50.6257C19.0615 50.9311 19.1551 51.2708 19.1551 51.6449C19.1551 51.9124 19.1065 52.174 19.0095 52.4297C18.9148 52.683 18.749 52.9659 18.5123 53.2784C18.2779 53.5885 17.9524 53.9673 17.5357 54.4148L15.9022 56.1619V56.2188H19.2829V57H14.6948ZM20.6228 55.5085V54.7841L23.8188 49.7273H24.3444V50.8494H23.9893L21.5745 54.6705V54.7273H25.8785V55.5085H20.6228ZM24.0461 57V55.2884V54.951V49.7273H24.8842V57H24.0461ZM29.7814 57.0994C29.2464 57.0994 28.7907 56.9538 28.4143 56.6626C28.0378 56.3691 27.7502 55.9441 27.5513 55.3878C27.3525 54.8291 27.253 54.1544 27.253 53.3636C27.253 52.5777 27.3525 51.9065 27.5513 51.3501C27.7526 50.7914 28.0414 50.3653 28.4178 50.0717C28.7966 49.7758 29.2511 49.6278 29.7814 49.6278C30.3117 49.6278 30.7651 49.7758 31.1415 50.0717C31.5203 50.3653 31.8091 50.7914 32.008 51.3501C32.2092 51.9065 32.3099 52.5777 32.3099 53.3636C32.3099 54.1544 32.2104 54.8291 32.0116 55.3878C31.8127 55.9441 31.5251 56.3691 31.1486 56.6626C30.7722 56.9538 30.3165 57.0994 29.7814 57.0994ZM29.7814 56.3182C30.3117 56.3182 30.7237 56.0625 31.0172 55.5511C31.3108 55.0398 31.4576 54.3106 31.4576 53.3636C31.4576 52.7339 31.3901 52.1977 31.2552 51.755C31.1226 51.3123 30.9308 50.9749 30.6799 50.7429C30.4313 50.5109 30.1318 50.3949 29.7814 50.3949C29.2559 50.3949 28.8451 50.6541 28.5492 51.1726C28.2533 51.6887 28.1053 52.419 28.1053 53.3636C28.1053 53.9934 28.1716 54.5284 28.3042 54.9688C28.4367 55.4091 28.6273 55.7441 28.8759 55.9737C29.1269 56.2034 29.4287 56.3182 29.7814 56.3182Z" fill="black"/>
</svg>
