<svg width="30" height="63" viewBox="0 0 30 63" fill="none" xmlns="http://www.w3.org/2000/svg">
<path d="M0.929901 14V6.72727H3.47251C3.97914 6.72727 4.39699 6.81487 4.72607 6.99006C5.05514 7.16288 5.30017 7.39607 5.46115 7.68963C5.62214 7.98082 5.70263 8.30398 5.70263 8.65909C5.70263 8.97159 5.64699 9.22964 5.53572 9.43324C5.42682 9.63684 5.28241 9.79782 5.10249 9.91619C4.92493 10.0346 4.73198 10.1222 4.52365 10.179V10.25C4.74619 10.2642 4.96991 10.3423 5.19482 10.4844C5.41972 10.6264 5.60793 10.83 5.75945 11.0952C5.91096 11.3603 5.98672 11.6847 5.98672 12.0682C5.98672 12.4328 5.90386 12.7607 5.73814 13.0518C5.57242 13.343 5.31082 13.5739 4.95334 13.7443C4.59586 13.9148 4.13066 14 3.55774 14H0.929901ZM1.81058 13.2188H3.55774C4.13303 13.2188 4.54141 13.1075 4.78288 12.8849C5.02673 12.66 5.14865 12.3878 5.14865 12.0682C5.14865 11.822 5.08591 11.5947 4.96044 11.3864C4.83497 11.1757 4.65623 11.0076 4.42422 10.8821C4.19221 10.7543 3.91759 10.6903 3.60036 10.6903H1.81058V13.2188ZM1.81058 9.9233H3.44411C3.70926 9.9233 3.94837 9.87121 4.16144 9.76705C4.37687 9.66288 4.54733 9.5161 4.6728 9.3267C4.80064 9.13731 4.86456 8.91477 4.86456 8.65909C4.86456 8.33949 4.75329 8.06842 4.53075 7.84588C4.30822 7.62098 3.95547 7.50852 3.47251 7.50852H1.81058V9.9233ZM9.73608 14.1136C9.24366 14.1136 8.8116 13.9964 8.43992 13.7621C8.0706 13.5277 7.78177 13.1998 7.57344 12.7784C7.36747 12.357 7.26449 11.8646 7.26449 11.3011C7.26449 10.733 7.36747 10.237 7.57344 9.81321C7.78177 9.38944 8.0706 9.06037 8.43992 8.82599C8.8116 8.59162 9.24366 8.47443 9.73608 8.47443C10.2285 8.47443 10.6594 8.59162 11.0287 8.82599C11.4004 9.06037 11.6892 9.38944 11.8952 9.81321C12.1035 10.237 12.2077 10.733 12.2077 11.3011C12.2077 11.8646 12.1035 12.357 11.8952 12.7784C11.6892 13.1998 11.4004 13.5277 11.0287 13.7621C10.6594 13.9964 10.2285 14.1136 9.73608 14.1136ZM9.73608 13.3608C10.1101 13.3608 10.4179 13.2649 10.6594 13.0732C10.9009 12.8814 11.0796 12.6293 11.1956 12.3168C11.3116 12.0043 11.3696 11.6657 11.3696 11.3011C11.3696 10.9366 11.3116 10.5968 11.1956 10.282C11.0796 9.96709 10.9009 9.71259 10.6594 9.51847C10.4179 9.32434 10.1101 9.22727 9.73608 9.22727C9.36203 9.22727 9.05426 9.32434 8.81278 9.51847C8.57131 9.71259 8.39257 9.96709 8.27656 10.282C8.16056 10.5968 8.10256 10.9366 8.10256 11.3011C8.10256 11.6657 8.16056 12.0043 8.27656 12.3168C8.39257 12.6293 8.57131 12.8814 8.81278 13.0732C9.05426 13.2649 9.36203 13.3608 9.73608 13.3608ZM15.9029 14.1136C15.4105 14.1136 14.9784 13.9964 14.6067 13.7621C14.2374 13.5277 13.9486 13.1998 13.7402 12.7784C13.5343 12.357 13.4313 11.8646 13.4313 11.3011C13.4313 10.733 13.5343 10.237 13.7402 9.81321C13.9486 9.38944 14.2374 9.06037 14.6067 8.82599C14.9784 8.59162 15.4105 8.47443 15.9029 8.47443C16.3953 8.47443 16.8262 8.59162 17.1955 8.82599C17.5672 9.06037 17.856 9.38944 18.062 9.81321C18.2703 10.237 18.3745 10.733 18.3745 11.3011C18.3745 11.8646 18.2703 12.357 18.062 12.7784C17.856 13.1998 17.5672 13.5277 17.1955 13.7621C16.8262 13.9964 16.3953 14.1136 15.9029 14.1136ZM15.9029 13.3608C16.2769 13.3608 16.5847 13.2649 16.8262 13.0732C17.0676 12.8814 17.2464 12.6293 17.3624 12.3168C17.4784 12.0043 17.5364 11.6657 17.5364 11.3011C17.5364 10.9366 17.4784 10.5968 17.3624 10.282C17.2464 9.96709 17.0676 9.71259 16.8262 9.51847C16.5847 9.32434 16.2769 9.22727 15.9029 9.22727C15.5288 9.22727 15.2211 9.32434 14.9796 9.51847C14.7381 9.71259 14.5594 9.96709 14.4434 10.282C14.3274 10.5968 14.2694 10.9366 14.2694 11.3011C14.2694 11.6657 14.3274 12.0043 14.4434 12.3168C14.5594 12.6293 14.7381 12.8814 14.9796 13.0732C15.2211 13.2649 15.5288 13.3608 15.9029 13.3608ZM20.635 12.0114L20.6208 10.9744H20.7913L23.1776 8.54545H24.2146L21.6719 11.1165H21.6009L20.635 12.0114ZM19.8538 14V6.72727H20.6918V14H19.8538ZM23.3197 14L21.189 11.3011L21.7856 10.7188L24.385 14H23.3197ZM29.3569 9.76705L28.604 9.98011C28.5567 9.85464 28.4868 9.73272 28.3945 9.61435C28.3045 9.49361 28.1814 9.39418 28.0252 9.31605C27.8689 9.23793 27.6689 9.19886 27.425 9.19886C27.0912 9.19886 26.8131 9.2758 26.5905 9.42969C26.3703 9.5812 26.2603 9.77415 26.2603 10.0085C26.2603 10.2169 26.336 10.3814 26.4875 10.5021C26.6391 10.6229 26.8758 10.7235 27.1978 10.804L28.0074 11.0028C28.4951 11.1212 28.8585 11.3023 29.0976 11.5462C29.3367 11.7876 29.4563 12.099 29.4563 12.4801C29.4563 12.7926 29.3663 13.072 29.1864 13.3182C29.0088 13.5644 28.7603 13.7585 28.4407 13.9006C28.1211 14.0426 27.7494 14.1136 27.3256 14.1136C26.7693 14.1136 26.3088 13.9929 25.9442 13.7514C25.5796 13.5099 25.3488 13.1572 25.2517 12.6932L26.0472 12.4943C26.123 12.7879 26.2662 13.008 26.4769 13.1548C26.6899 13.3016 26.9681 13.375 27.3114 13.375C27.702 13.375 28.0122 13.2921 28.2418 13.1264C28.4738 12.9583 28.5898 12.7571 28.5898 12.5227C28.5898 12.3333 28.5235 12.1747 28.3909 12.0469C28.2584 11.9167 28.0548 11.8196 27.7801 11.7557L26.8711 11.5426C26.3715 11.4242 26.0046 11.2408 25.7702 10.9922C25.5382 10.7412 25.4222 10.4276 25.4222 10.0511C25.4222 9.74337 25.5086 9.47112 25.6814 9.23438C25.8566 8.99763 26.0945 8.81179 26.3952 8.67685C26.6982 8.5419 27.0415 8.47443 27.425 8.47443C27.9648 8.47443 28.3886 8.5928 28.6963 8.82955C29.0065 9.06629 29.2266 9.37879 29.3569 9.76705Z" fill="black"/>
<rect x="5" y="21" width="20" height="21" fill="#BB945F"/>
<rect x="7" y="21" width="1" height="19" fill="#826844"/>
<rect x="6" y="21" width="1" height="21" fill="white"/>
<path d="M12.7255 57V56.3608L15.1261 53.733C15.4078 53.4252 15.6398 53.1577 15.8221 52.9304C16.0044 52.7008 16.1393 52.4853 16.2269 52.2841C16.3169 52.0805 16.3619 51.8674 16.3619 51.6449C16.3619 51.3892 16.3003 51.1679 16.1772 50.9808C16.0565 50.7938 15.8907 50.6494 15.68 50.5476C15.4693 50.4458 15.2326 50.3949 14.9698 50.3949C14.6905 50.3949 14.4466 50.4529 14.2383 50.5689C14.0323 50.6825 13.8725 50.8423 13.7589 51.0483C13.6476 51.2543 13.592 51.4957 13.592 51.7727H12.7539C12.7539 51.3466 12.8522 50.9725 13.0487 50.6506C13.2451 50.3286 13.5127 50.0777 13.8512 49.8977C14.1921 49.7178 14.5745 49.6278 14.9982 49.6278C15.4244 49.6278 15.802 49.7178 16.131 49.8977C16.4601 50.0777 16.7182 50.3203 16.9052 50.6257C17.0922 50.9311 17.1857 51.2708 17.1857 51.6449C17.1857 51.9124 17.1372 52.174 17.0401 52.4297C16.9454 52.683 16.7797 52.9659 16.543 53.2784C16.3086 53.5885 15.9831 53.9673 15.5664 54.4148L13.9329 56.1619V56.2188H17.3136V57H12.7255Z" fill="black"/>
</svg>
