<svg width="27" height="63" viewBox="0 0 27 63" fill="none" xmlns="http://www.w3.org/2000/svg">
<path d="M1.43484 6.72727L3.59393 12.8494H3.67915L5.83825 6.72727H6.76154L4.09109 14H3.182L0.511541 6.72727H1.43484ZM7.98072 14V8.54545H8.81879V14H7.98072ZM8.40685 7.63636C8.2435 7.63636 8.10264 7.58073 7.98427 7.46946C7.86826 7.35819 7.81026 7.22443 7.81026 7.06818C7.81026 6.91193 7.86826 6.77817 7.98427 6.6669C8.10264 6.55563 8.2435 6.5 8.40685 6.5C8.57021 6.5 8.70988 6.55563 8.82589 6.6669C8.94426 6.77817 9.00344 6.91193 9.00344 7.06818C9.00344 7.22443 8.94426 7.35819 8.82589 7.46946C8.70988 7.58073 8.57021 7.63636 8.40685 7.63636ZM14.4174 9.76705L13.6646 9.98011C13.6172 9.85464 13.5474 9.73272 13.455 9.61435C13.3651 9.49361 13.242 9.39418 13.0857 9.31605C12.9295 9.23793 12.7294 9.19886 12.4856 9.19886C12.1518 9.19886 11.8736 9.2758 11.6511 9.42969C11.4309 9.5812 11.3208 9.77415 11.3208 10.0085C11.3208 10.2169 11.3966 10.3814 11.5481 10.5021C11.6996 10.6229 11.9363 10.7235 12.2583 10.804L13.068 11.0028C13.5557 11.1212 13.9191 11.3023 14.1582 11.5462C14.3973 11.7876 14.5168 12.099 14.5168 12.4801C14.5168 12.7926 14.4269 13.072 14.2469 13.3182C14.0694 13.5644 13.8208 13.7585 13.5012 13.9006C13.1816 14.0426 12.8099 14.1136 12.3862 14.1136C11.8298 14.1136 11.3693 13.9929 11.0048 13.7514C10.6402 13.5099 10.4094 13.1572 10.3123 12.6932L11.1077 12.4943C11.1835 12.7879 11.3267 13.008 11.5374 13.1548C11.7505 13.3016 12.0287 13.375 12.3719 13.375C12.7626 13.375 13.0727 13.2921 13.3023 13.1264C13.5344 12.9583 13.6504 12.7571 13.6504 12.5227C13.6504 12.3333 13.5841 12.1747 13.4515 12.0469C13.3189 11.9167 13.1153 11.8196 12.8407 11.7557L11.9316 11.5426C11.4321 11.4242 11.0651 11.2408 10.8308 10.9922C10.5987 10.7412 10.4827 10.4276 10.4827 10.0511C10.4827 9.74337 10.5692 9.47112 10.742 9.23438C10.9172 8.99763 11.1551 8.81179 11.4558 8.67685C11.7588 8.5419 12.1021 8.47443 12.4856 8.47443C13.0254 8.47443 13.4491 8.5928 13.7569 8.82955C14.067 9.06629 14.2872 9.37879 14.4174 9.76705ZM15.9784 14V8.54545H16.8164V14H15.9784ZM16.4045 7.63636C16.2412 7.63636 16.1003 7.58073 15.9819 7.46946C15.8659 7.35819 15.8079 7.22443 15.8079 7.06818C15.8079 6.91193 15.8659 6.77817 15.9819 6.6669C16.1003 6.55563 16.2412 6.5 16.4045 6.5C16.5679 6.5 16.7075 6.55563 16.8235 6.6669C16.9419 6.77817 17.0011 6.91193 17.0011 7.06818C17.0011 7.22443 16.9419 7.35819 16.8235 7.46946C16.7075 7.58073 16.5679 7.63636 16.4045 7.63636ZM20.9236 8.54545V9.25568H18.0969V8.54545H20.9236ZM18.9207 7.23864H19.7588V12.4375C19.7588 12.6742 19.7931 12.8518 19.8618 12.9702C19.9328 13.0862 20.0228 13.1643 20.1317 13.2045C20.2429 13.2424 20.3601 13.2614 20.4832 13.2614C20.5756 13.2614 20.6513 13.2566 20.7105 13.2472C20.7697 13.2353 20.817 13.2259 20.8526 13.2188L21.023 13.9716C20.9662 13.9929 20.8869 14.0142 20.7851 14.0355C20.6833 14.0592 20.5543 14.071 20.398 14.071C20.1613 14.071 19.9293 14.0201 19.702 13.9183C19.4771 13.8165 19.2901 13.6615 19.1409 13.4531C18.9941 13.2448 18.9207 12.982 18.9207 12.6648V7.23864ZM26.1502 9.76705L25.3974 9.98011C25.35 9.85464 25.2802 9.73272 25.1879 9.61435C25.0979 9.49361 24.9748 9.39418 24.8185 9.31605C24.6623 9.23793 24.4622 9.19886 24.2184 9.19886C23.8846 9.19886 23.6064 9.2758 23.3839 9.42969C23.1637 9.5812 23.0536 9.77415 23.0536 10.0085C23.0536 10.2169 23.1294 10.3814 23.2809 10.5021C23.4324 10.6229 23.6692 10.7235 23.9911 10.804L24.8008 11.0028C25.2885 11.1212 25.6519 11.3023 25.891 11.5462C26.1301 11.7876 26.2496 12.099 26.2496 12.4801C26.2496 12.7926 26.1597 13.072 25.9798 13.3182C25.8022 13.5644 25.5536 13.7585 25.234 13.9006C24.9144 14.0426 24.5427 14.1136 24.119 14.1136C23.5626 14.1136 23.1022 13.9929 22.7376 13.7514C22.373 13.5099 22.1422 13.1572 22.0451 12.6932L22.8406 12.4943C22.9163 12.7879 23.0595 13.008 23.2702 13.1548C23.4833 13.3016 23.7615 13.375 24.1048 13.375C24.4954 13.375 24.8055 13.2921 25.0352 13.1264C25.2672 12.9583 25.3832 12.7571 25.3832 12.5227C25.3832 12.3333 25.3169 12.1747 25.1843 12.0469C25.0517 11.9167 24.8481 11.8196 24.5735 11.7557L23.6644 11.5426C23.1649 11.4242 22.7979 11.2408 22.5636 10.9922C22.3316 10.7412 22.2156 10.4276 22.2156 10.0511C22.2156 9.74337 22.302 9.47112 22.4748 9.23438C22.65 8.99763 22.8879 8.81179 23.1886 8.67685C23.4916 8.5419 23.8349 8.47443 24.2184 8.47443C24.7582 8.47443 25.1819 8.5928 25.4897 8.82955C25.7998 9.06629 26.02 9.37879 26.1502 9.76705Z" fill="black"/>
<path fill-rule="evenodd" clip-rule="evenodd" d="M13.5 31C16.2614 31 18.5 28.7614 18.5 26C18.5 23.2386 16.2614 21 13.5 21C10.7386 21 8.5 23.2386 8.5 26C8.5 28.7614 10.7386 31 13.5 31ZM20.5711 34.9289C22.4464 36.8043 23.5 39.3478 23.5 42H13.5L3.5 42C3.5 39.3478 4.55357 36.8043 6.42893 34.9289C8.3043 33.0536 10.8478 32 13.5 32C16.1522 32 18.6957 33.0536 20.5711 34.9289Z" fill="#BB945F"/>
<path d="M7.9419 57V56.3608L10.3425 53.733C10.6242 53.4252 10.8562 53.1577 11.0385 52.9304C11.2208 52.7008 11.3557 52.4853 11.4433 52.2841C11.5333 52.0805 11.5783 51.8674 11.5783 51.6449C11.5783 51.3892 11.5167 51.1679 11.3936 50.9808C11.2729 50.7938 11.1071 50.6494 10.8964 50.5476C10.6857 50.4458 10.449 50.3949 10.1862 50.3949C9.90687 50.3949 9.66302 50.4529 9.45469 50.5689C9.24872 50.6825 9.08892 50.8423 8.97528 51.0483C8.86402 51.2543 8.80838 51.4957 8.80838 51.7727H7.97031C7.97031 51.3466 8.06856 50.9725 8.26506 50.6506C8.46155 50.3286 8.72907 50.0777 9.06761 49.8977C9.40852 49.7178 9.79086 49.6278 10.2146 49.6278C10.6408 49.6278 11.0184 49.7178 11.3474 49.8977C11.6765 50.0777 11.9346 50.3203 12.1216 50.6257C12.3086 50.9311 12.4021 51.2708 12.4021 51.6449C12.4021 51.9124 12.3536 52.174 12.2565 52.4297C12.1618 52.683 11.9961 52.9659 11.7594 53.2784C11.525 53.5885 11.1995 53.9673 10.7828 54.4148L9.14929 56.1619V56.2188H12.53V57H7.9419ZM16.654 57.0994C16.1852 57.0994 15.7674 57.0189 15.4004 56.858C15.0358 56.697 14.7458 56.4732 14.5304 56.1868C14.3173 55.898 14.2013 55.563 14.1824 55.1818H15.0773C15.0962 55.4162 15.1767 55.6186 15.3187 55.7891C15.4608 55.9571 15.6466 56.0874 15.8763 56.1797C16.1059 56.272 16.3604 56.3182 16.6398 56.3182C16.9523 56.3182 17.2293 56.2637 17.4707 56.1548C17.7122 56.0459 17.9016 55.8944 18.0389 55.7003C18.1762 55.5062 18.2449 55.2812 18.2449 55.0256C18.2449 54.758 18.1786 54.5225 18.046 54.3189C17.9134 54.1129 17.7193 53.9519 17.4636 53.8359C17.208 53.7199 16.8955 53.6619 16.5261 53.6619H15.9437V52.8807H16.5261C16.815 52.8807 17.0683 52.8286 17.2861 52.7244C17.5063 52.6203 17.6779 52.4735 17.801 52.2841C17.9265 52.0947 17.9892 51.8722 17.9892 51.6165C17.9892 51.3703 17.9348 51.156 17.8259 50.9737C17.717 50.7914 17.5631 50.6494 17.3642 50.5476C17.1677 50.4458 16.9357 50.3949 16.6682 50.3949C16.4172 50.3949 16.1805 50.4411 15.958 50.5334C15.7378 50.6233 15.5579 50.7547 15.4182 50.9276C15.2785 51.098 15.2027 51.304 15.1909 51.5455H14.3386C14.3528 51.1643 14.4677 50.8305 14.6831 50.544C14.8985 50.2552 15.1803 50.0303 15.5283 49.8693C15.8786 49.7083 16.2634 49.6278 16.6824 49.6278C17.1322 49.6278 17.5181 49.719 17.8401 49.9013C18.162 50.0812 18.4094 50.3191 18.5822 50.6151C18.7551 50.911 18.8415 51.2306 18.8415 51.5739C18.8415 51.9834 18.7338 52.3326 18.5183 52.6214C18.3053 52.9103 18.0152 53.1103 17.6483 53.2216V53.2784C18.1076 53.3542 18.4662 53.5495 18.7243 53.8643C18.9823 54.1768 19.1114 54.5639 19.1114 55.0256C19.1114 55.4209 19.0036 55.776 18.7882 56.0909C18.5751 56.4034 18.2839 56.6496 17.9146 56.8295C17.5453 57.0095 17.1251 57.0994 16.654 57.0994Z" fill="black"/>
</svg>
